<svg width="43" height="43" viewBox="0 0 43 43" fill="none" xmlns="http://www.w3.org/2000/svg">
<g filter="url(#filter0_d_7322_587)">
<rect x="4" width="35" height="35" rx="17.5" fill="white"/>
<path d="M32.5006 11.512C32.3647 11.0272 32.1 10.5883 31.7346 10.242C31.3589 9.88496 30.8984 9.62959 30.3966 9.49996C28.5186 9.00496 20.9946 9.00496 20.9946 9.00496C17.8579 8.96927 14.722 9.12623 11.6046 9.47496C11.1028 9.61417 10.6432 9.87525 10.2666 10.235C9.89662 10.591 9.62862 11.03 9.48862 11.511C9.15231 13.3227 8.98891 15.1623 9.00062 17.005C8.98862 18.846 9.15162 20.685 9.48862 22.499C9.62562 22.978 9.89262 23.415 10.2636 23.768C10.6346 24.121 11.0966 24.376 11.6046 24.511C13.5076 25.005 20.9946 25.005 20.9946 25.005C24.1353 25.0407 27.2752 24.8837 30.3966 24.535C30.8984 24.4053 31.3589 24.15 31.7346 23.793C32.0999 23.4467 32.3643 23.0077 32.4996 22.523C32.8447 20.7119 33.0125 18.8716 33.0006 17.028C33.0266 15.1766 32.859 13.3275 32.5006 11.511V11.512ZM18.6026 20.429V13.582L24.8626 17.006L18.6026 20.429Z" fill="#040404"/>
</g>
<defs>
<filter id="filter0_d_7322_587" x="0" y="0" width="43" height="43" filterUnits="userSpaceOnUse" color-interpolation-filters="sRGB">
<feFlood flood-opacity="0" result="BackgroundImageFix"/>
<feColorMatrix in="SourceAlpha" type="matrix" values="0 0 0 0 0 0 0 0 0 0 0 0 0 0 0 0 0 0 127 0" result="hardAlpha"/>
<feOffset dy="4"/>
<feGaussianBlur stdDeviation="2"/>
<feComposite in2="hardAlpha" operator="out"/>
<feColorMatrix type="matrix" values="0 0 0 0 0 0 0 0 0 0 0 0 0 0 0 0 0 0 0.25 0"/>
<feBlend mode="normal" in2="BackgroundImageFix" result="effect1_dropShadow_7322_587"/>
<feBlend mode="normal" in="SourceGraphic" in2="effect1_dropShadow_7322_587" result="shape"/>
</filter>
</defs>
</svg>
